<?xml version="1.0" encoding="UTF-8"?>
<svg viewBox="0 0 78.702141 82.303558" xmlns="http://www.w3.org/2000/svg">
 <defs>
  <linearGradient id="b" x1="289.49" x2="248.16" y1="121.91" y2="147.79" gradientUnits="userSpaceOnUse">
   <stop stop-color="#b44c33" offset="0"/>
   <stop stop-color="#ffca00" offset="1"/>
  </linearGradient>
  <linearGradient id="a" x1="263.66" x2="246.93" y1="125.63" y2="42.251" gradientUnits="userSpaceOnUse">
   <stop stop-color="#c4d9ea" stop-opacity="0" offset="0"/>
   <stop stop-color="#fff" offset="1"/>
  </linearGradient>
 </defs>
 <g transform="translate(-253.64 -58.413)">
  <path d="m266.52 58.437c-7.0912 0-12.8 5.7088-12.8 12.8v56.68c-3e-5 7.0912 5.7088 12.8 12.8 12.8h53.02c7.0912 0 12.8-5.7088 12.8-12.8v-56.68c0-7.0912-5.7088-12.8-12.8-12.8zm11 6.33h32.23c4.9429 0 8.92 3.9771 8.92 8.92v52.4c0 4.9429-3.9771 8.92-8.92 8.92h-32.23c-4.9428-1e-5 -8.91-3.9771-8.91-8.92v-52.4c0-4.9429 3.9671-8.92 8.91-8.92zm3.22 8.87c-2.1178 0-3.81 1.7222-3.81 3.84v10.02c0 2.1178 1.6922 3.81 3.81 3.81h26.08c2.1177 0 3.8099-1.6922 3.81-3.81v-10.02c0-2.1178-1.6923-3.84-3.81-3.84zm1.63 22.62c-1.7879 0-3.2199 1.3441-3.22 3.01s1.4321 3.02 3.22 3.02 3.24-1.354 3.24-3.02-1.4521-3.01-3.24-3.01zm24.29 0.05c-1.7878 0-3.24 1.374-3.24 3.04s1.4522 3.01 3.24 3.01 3.2499-1.3441 3.25-3.01-1.4621-3.04-3.25-3.04zm-16.05 0.15c-1.7879 0-3.22 1.3541-3.22 3.02s1.4322 3.01 3.22 3.01 3.25-1.344 3.25-3.01-1.4621-3.02-3.25-3.02zm7.96 0c-1.7879 0-3.24 1.3541-3.24 3.02s1.4521 3.01 3.24 3.01 3.25-1.344 3.25-3.01-1.4622-3.02-3.25-3.02zm-16.28 6.96c-1.7879 0-3.22 1.3441-3.22 3.01s1.4321 3.02 3.22 3.02 3.2501-1.354 3.25-3.02-1.4622-3.01-3.25-3.01zm24.3 0.08c-1.7878 0-3.2299 1.3441-3.23 3.01s1.4422 3.02 3.23 3.02 3.24-1.354 3.24-3.02-1.4521-3.01-3.24-3.01zm-16.06 0.15c-1.7879 0-3.22 1.3541-3.22 3.02s1.432 3.01 3.22 3.01 3.2501-1.344 3.25-3.01-1.4622-3.02-3.25-3.02zm7.97 0c-1.7879 0-3.2501 1.3541-3.25 3.02s1.4622 3.01 3.25 3.01 3.24-1.344 3.24-3.01-1.4522-3.02-3.24-3.02zm-16.49 7.14c-1.7879 0-3.2501 1.3441-3.25 3.01s1.4622 3.02 3.25 3.02 3.24-1.3541 3.24-3.02-1.4521-3.01-3.24-3.01zm24.29 0.08c-1.7878 0-3.24 1.3441-3.24 3.01s1.4521 3.01 3.24 3.01 3.25-1.344 3.25-3.01-1.4622-3.01-3.25-3.01zm-16.05 0.12c-1.7879 0-3.24 1.3741-3.24 3.04s1.4522 3.02 3.24 3.02 3.25-1.354 3.25-3.02-1.4621-3.04-3.25-3.04zm7.96 0c-1.7878 0-3.24 1.3741-3.24 3.04s1.4522 3.02 3.24 3.02 3.22-1.354 3.22-3.02-1.4321-3.04-3.22-3.04zm-16.2 6.86c-1.7879 0-3.2501 1.3441-3.25 3.01s1.4622 3.02 3.25 3.02 3.24-1.354 3.24-3.02-1.4521-3.01-3.24-3.01zm25.09 0.1c-1.7879 0-3.2199 1.3741-3.22 3.04s1.4322 3.01 3.22 3.01 3.25-1.344 3.25-3.01-1.4622-3.04-3.25-3.04zm-16.85 0.13c-1.7879 0-3.2401 1.3441-3.24 3.01s1.4522 3.02 3.24 3.02 3.25-1.354 3.25-3.02-1.4621-3.01-3.25-3.01zm7.96 0c-1.7878 0-3.25 1.3441-3.24 3.01s1.4522 3.02 3.24 3.02 3.22-1.354 3.22-3.02-1.4321-3.01-3.22-3.01z" fill="url(#b)"/>
  <path d="m312.51 110.1c-19.919 0.13214-29.734-37.426-58.87-10.09v-28.8c0-7.0912 5.7088-12.8 12.8-12.8h53.03c7.0912 0 12.8 5.7088 12.8 12.8v27.66c-7.8061 8.1972-14.183 11.193-19.76 11.23z" fill="url(#a)"/>
 </g>
</svg>
