<?xml version="1.0" encoding="UTF-8"?>
<svg id="Capa_4" data-name="Capa 4" xmlns="http://www.w3.org/2000/svg" viewBox="0 0 384 384">
  <defs>
    <style>
      .cls-1 {
        fill: #00d16d;
      }

      .cls-2 {
        fill: #00d1fa;
      }

      .cls-3 {
        fill: #06303d;
      }

      .cls-4 {
        fill: #09475e;
      }

      .cls-5 {
        fill: #005dec;
      }
    </style>
  </defs>
  <g>
    <path class="cls-2" d="M192.41,383.06c-8.72,.04-17.45,.2-26.17,.07-6.42-.09-11.04-5-11.13-11.66-.11-7.85-.13-15.71,.03-23.56,.05-2.42-.66-3.47-3.07-4.07-13.84-3.5-26.87-9.04-39.08-16.43-1.89-1.14-2.92-.93-4.4,.6-5.37,5.56-10.88,10.98-16.37,16.42-5.86,5.81-12.1,5.82-17.98-.04-11.58-11.52-23.13-23.06-34.64-34.65-5.89-5.93-5.87-12.07-.04-17.97,5.52-5.59,11.03-11.18,16.69-16.63,1.65-1.58,1.84-2.75,.68-4.74-7.07-12.11-12.26-25.02-15.59-38.64-.57-2.32-1.54-2.94-3.79-2.91-7.98,.12-15.96,.07-23.93,.04-8.24-.02-12.79-4.52-12.8-12.66-.02-16.46-.02-32.91,0-49.37,.01-7.94,4.58-12.5,12.55-12.53,8.35-.03,16.71-.08,25.06,.04,2.26,.03,3.21-.63,3.83-2.9,3.57-13.16,8.81-25.65,15.92-37.3,1.2-1.97,1.09-3.13-.58-4.75-6.09-5.89-12.05-11.92-18.01-17.95-5.85-5.91-5.88-12.05,0-17.97,11.6-11.67,23.23-23.31,34.91-34.91,5.67-5.63,11.95-5.53,17.7,.17,6.2,6.14,12.41,12.27,18.47,18.55,1.62,1.67,2.76,1.7,4.69,.57,11.56-6.75,23.87-11.77,36.83-15.11,2.25-.58,2.96-1.5,2.92-3.79-.13-8.23,.16-16.46-.12-24.68-.24-6.95,2.33-11.77,8.94-14.25h28.43c.02,29.94,.04,59.88,.07,89.82-.08,.16-.13,.34-.15,.52-55.67-.37-101.18,45.15-101.18,101.21,0,56.04,45.48,101.53,101.18,101.21,.02,.18,.07,.36,.15,.52,0,29.9-.02,59.8-.03,89.7Z"/>
    <path class="cls-5" d="M192.44,89.89c-.02-29.94-.04-59.88-.07-89.82h29.18c6.28,2.92,8.58,7.86,8.27,14.71-.37,8.09,.01,16.2-.15,24.3-.04,2.17,.64,3.07,2.65,3.57,13.22,3.27,25.66,8.51,37.41,15.32,1.98,1.15,2.91,.7,4.3-.73,6.1-6.24,12.29-12.39,18.49-18.54,5.86-5.81,12.09-5.85,17.98,0,11.68,11.59,23.31,23.24,34.91,34.91,5.64,5.67,5.62,12.06,.01,17.72-6.05,6.11-12.1,12.23-18.28,18.21-1.54,1.49-1.75,2.53-.61,4.4,7.21,11.84,12.55,24.5,16.14,37.88,.54,2.03,1.47,2.48,3.36,2.46,7.73-.08,15.47,.26,23.18-.12,6.86-.34,11.76,2.03,14.7,8.27v58.36c-2.94,6.24-7.85,8.62-14.7,8.26-7.34-.38-14.71,0-22.06-.14-2.07-.04-3.13,.44-3.64,2.59-3.28,13.87-8.66,26.92-15.79,39.24-1.01,1.75-.79,2.74,.61,4.1,5.8,5.65,11.52,11.4,17.21,17.17,5.44,5.5,5.48,11.94,.01,17.45-11.68,11.77-23.41,23.49-35.17,35.18-5.68,5.65-12.06,5.63-17.71,.03-5.58-5.53-11.16-11.06-16.63-16.69-1.34-1.37-2.25-1.66-4.02-.58-12.37,7.53-25.63,13.05-39.64,16.68-2.22,.57-2.7,1.49-2.68,3.55,.09,7.73,.06,15.46,.03,23.19-.03,7.7-4.65,12.35-12.27,12.34-8.35,0-16.7-.07-25.05-.11,0-29.9,.02-59.8,.03-89.7,2.73-.23,5.45-.48,8.18-.69,23.3-1.77,43.64-10.64,60.55-26.61,23.73-22.41,34.71-50.06,32.24-82.8-1.74-23.04-10.63-43.05-26.16-60-20.05-21.89-45.31-32.48-74.81-33.36Z"/>
    <path class="cls-3" d="M192.44,89.89c29.5,.88,54.76,11.46,74.81,33.36,15.52,16.95,24.41,36.97,26.16,60,2.47,32.74-8.51,60.39-32.24,82.8-16.91,15.97-37.25,24.84-60.55,26.61-2.73,.21-5.45,.46-8.18,.69-.08-.16-.13-.34-.15-.52,.04-14.96,.07-29.92,.11-44.88,2.71-.28,5.45-.43,8.14-.87,21.27-3.46,36.28-15.26,44.08-35.16,7.81-19.94,4.63-38.88-8.72-55.67-11.03-13.87-25.93-20.34-43.49-20.97-.04-14.96-.07-29.92-.11-44.88,.02-.18,.07-.36,.15-.52Z"/>
    <path class="cls-4" d="M192.29,90.41c.04,14.96,.07,29.92,.11,44.88-.5,.04-.99,.1-1.49,.12-36.41,1.25-62.02,35.04-53.05,70.25,6.15,24.17,28.09,42.22,54.54,42.29-.04,14.96-.07,29.92-.11,44.88-55.7,.32-101.18-45.18-101.18-101.21,0-56.06,45.51-101.58,101.18-101.21Z"/>
  </g>
  <rect class="cls-1" x="165.45" y="118.47" width="52.09" height="147.06" rx="9.9" ry="9.9"/>
  <rect class="cls-1" x="165.96" y="72.7" width="52.09" height="34.38" rx="7.93" ry="7.93"/>
</svg>